<?xml version="1.0" encoding="utf-8"?>
<!-- Generator: Adobe Illustrator 17.0.2, SVG Export Plug-In . SVG Version: 6.00 Build 0)  -->
<!DOCTYPE svg PUBLIC "-//W3C//DTD SVG 1.1//EN" "http://www.w3.org/Graphics/SVG/1.1/DTD/svg11.dtd">
<svg version="1.1" id="Layer_1" xmlns="http://www.w3.org/2000/svg" xmlns:xlink="http://www.w3.org/1999/xlink" x="0px" y="0px"
	 width="960px" height="194.99px" viewBox="0 0 960 194.99" enable-background="new 0 0 960 194.99" xml:space="preserve">
<g>
	<path fill="#B9493E" d="M150.213,53.592H34.582c-13.445,0-24.202,10.756-24.202,24.202s10.756,24.202,24.202,24.202h102.186v29.964
		H6.155v-9.22h121.393v-11.524H34.582c-18.631,0-33.421-14.982-33.421-33.422s14.79-33.421,33.421-33.421h115.631V53.592z
		 M121.786,150.399H6.155v-9.22h115.631c13.445,0,24.202-10.756,24.202-24.202c0-13.446-10.756-24.202-24.202-24.202H19.6V62.812
		h130.613v9.22H28.82v11.525h92.966c18.439,0,33.421,14.982,33.421,33.421S140.225,150.399,121.786,150.399z"/>
	<path fill="#B9493E" d="M311.554,150.399H195.923c-18.439,0-33.421-14.982-33.421-33.421V77.794
		c0-18.439,14.982-33.421,33.421-33.421h82.209c18.439,0,33.421,14.982,33.421,33.421v33.422H190.161v11.524h121.393v9.22H180.941
		v-29.964h121.393V77.794c0-13.445-10.756-24.202-24.202-24.202h-82.209c-13.445,0-24.202,10.756-24.202,24.202v39.184
		c0,13.445,10.756,24.202,24.202,24.202h115.631V150.399z M293.114,92.776H180.941V62.812h112.173V92.776z M283.895,83.556V72.031
		h-93.734v11.525H283.895z"/>
	<path fill="#B9493E" d="M472.895,150.399H357.264c-18.439,0-33.421-14.982-33.421-33.421V77.794
		c0-18.439,14.982-33.421,33.421-33.421h87.972V5.188h9.22v48.404h-97.191c-13.445,0-24.202,10.756-24.202,24.202v39.184
		c0,13.445,10.756,24.202,24.202,24.202h106.411V5.188h9.22V150.399z M454.455,131.96H342.282V62.812h112.173V131.96z
		 M445.235,122.74V72.031h-93.734v50.708H445.235z"/>
	<path fill="#C7932F" d="M634.235,116.978c0,18.439-14.982,33.421-33.422,33.421h-115.63V5.188h9.219v135.991h106.411
		c13.446,0,24.202-10.756,24.202-24.202V77.794c0-13.445-10.756-24.202-24.202-24.202h-97.19V5.188h9.219v39.184h87.972
		c18.439,0,33.422,14.982,33.422,33.421V116.978z M615.796,131.96H503.623V62.812h112.173V131.96z M606.576,122.74V72.031h-93.734
		v50.708H606.576z"/>
	<path fill="#C7932F" d="M795.576,116.978c0,18.439-14.981,33.421-33.421,33.421h-82.209c-18.439,0-33.422-14.982-33.422-33.421
		V77.794c0-18.439,14.982-33.421,33.422-33.421h82.209c18.439,0,33.421,14.982,33.421,33.421V116.978z M786.357,77.794
		c0-13.445-10.757-24.202-24.202-24.202h-82.209c-13.446,0-24.202,10.756-24.202,24.202v39.184
		c0,13.445,10.756,24.202,24.202,24.202h82.209c13.445,0,24.202-10.756,24.202-24.202V77.794z M777.137,131.96H664.964V62.812
		h112.173V131.96z M767.918,122.74V72.031h-93.734v50.708H767.918z"/>
	<path fill="#C7932F" d="M817.085,116.978c0,13.445,10.757,24.202,24.202,24.202h115.631v9.22H841.287
		c-18.439,0-33.422-14.982-33.422-33.421V5.188h9.22V116.978z M956.918,53.592H826.305V5.188h9.22v39.184h121.394V53.592z
		 M956.918,131.96H826.305V62.812h130.613v9.22H835.524v50.708h121.394V131.96z"/>
</g>
<g>
	<path fill="#2574A9" d="M27.131,186.556H7.207v-4.766h20.917v-1.986H12.105c-3.21,0-5.759-2.582-5.759-5.759
		s2.548-5.759,5.759-5.759h19.924v4.766H11.112v1.986h16.019c3.177,0,5.759,2.582,5.759,5.759S30.308,186.556,27.131,186.556z"/>
	<path fill="#2574A9" d="M59.041,173.053H48.715v13.503h-4.766v-13.503H33.623v-4.766h25.418V173.053z"/>
	<path fill="#2574A9" d="M85.656,186.556H65.732c-3.177,0-5.759-2.582-5.759-5.759v-6.751c0-3.177,2.582-5.759,5.759-5.759h19.924
		v4.766H64.739v1.986h20.917v4.766H64.739v1.986h20.917V186.556z"/>
	<path fill="#2574A9" d="M108.697,186.556H93.539c-3.177,0-5.759-2.582-5.759-5.759v-12.51h4.766v13.503h16.151V186.556z"/>
	<path fill="#2574A9" d="M130.546,186.556h-15.158c-3.177,0-5.759-2.582-5.759-5.759v-12.51h4.766v13.503h16.151V186.556z"/>
	<path fill="#2574A9" d="M162.687,186.556h-6.057l-2.582-3.508h-15.39l-2.582,3.508h-6.057L142.2,170.24
		c0.993-1.291,2.417-2.35,4.17-2.35c1.721,0,3.177,1.059,4.137,2.35L162.687,186.556z M150.574,178.282l-4.236-5.825l-4.236,5.825
		H150.574z"/>
	<path fill="#2574A9" d="M188.375,186.556h-4.766v-4.766h-16.151v4.766h-4.766v-18.269h19.924c3.177,0,5.759,2.582,5.759,5.759
		v1.986c0,1.39-0.662,2.581-1.655,3.375c0.993,0.794,1.655,1.986,1.655,3.376V186.556z M183.61,177.025v-3.972h-16.151v3.972H183.61
		z"/>
	<path fill="#2574A9" d="M225.451,176.032c0,3.177-2.582,5.759-5.759,5.759h-15.158v4.766h-4.766v-18.269h19.924
		c3.177,0,5.759,2.582,5.759,5.759V176.032z M220.686,177.025v-3.972h-16.151v3.972H220.686z"/>
	<path fill="#2574A9" d="M252.728,180.798c0,3.177-2.582,5.759-5.759,5.759h-14.165c-3.177,0-5.759-2.582-5.759-5.759v-6.751
		c0-3.177,2.582-5.759,5.759-5.759h14.165c3.177,0,5.759,2.582,5.759,5.759V180.798z M247.962,181.791v-8.738h-16.151v8.738H247.962
		z"/>
	<path fill="#2574A9" d="M280.535,176.032c0,3.177-2.582,5.759-5.759,5.759h-15.158v4.766h-4.766v-18.269h19.924
		c3.177,0,5.759,2.582,5.759,5.759V176.032z M275.769,177.025v-3.972h-16.151v3.972H275.769z"/>
	<path fill="#2574A9" d="M307.812,180.798c0,3.177-2.582,5.759-5.759,5.759h-14.165c-3.177,0-5.759-2.582-5.759-5.759v-12.51h4.766
		v13.503h16.151v-13.503h4.766V180.798z"/>
	<path fill="#2574A9" d="M330.853,186.556h-15.158c-3.177,0-5.759-2.582-5.759-5.759v-12.51h4.766v13.503h16.151V186.556z"/>
	<path fill="#2574A9" d="M362.994,186.556h-6.057l-2.582-3.508h-15.39l-2.582,3.508h-6.057l12.179-16.316
		c0.993-1.291,2.417-2.35,4.17-2.35c1.721,0,3.177,1.059,4.137,2.35L362.994,186.556z M350.88,178.282l-4.236-5.825l-4.236,5.825
		H350.88z"/>
	<path fill="#2574A9" d="M381.798,173.053h-10.326v13.503h-4.766v-13.503H356.38v-4.766h25.418V173.053z"/>
	<path fill="#2574A9" d="M388.157,186.556h-4.766v-18.269h4.766V186.556z"/>
	<path fill="#2574A9" d="M415.959,180.798c0,3.177-2.582,5.759-5.759,5.759h-14.165c-3.177,0-5.759-2.582-5.759-5.759v-6.751
		c0-3.177,2.582-5.759,5.759-5.759h14.165c3.177,0,5.759,2.582,5.759,5.759V180.798z M411.194,181.791v-8.738h-16.151v8.738H411.194
		z"/>
	<path fill="#2574A9" d="M443.965,168.287v13.9c0,2.647-2.118,4.766-4.766,4.766c-1.324,0-2.515-0.529-3.375-1.39l-12.974-12.908
		v13.9h-4.766v-13.9c0-2.648,2.151-4.766,4.766-4.766c1.324,0,2.482,0.563,3.375,1.423l12.974,12.875v-13.9H443.965z"/>
	<path fill="#2574A9" d="M481.041,186.556h-19.924c-3.177,0-5.759-2.582-5.759-5.759v-6.751c0-3.177,2.582-5.759,5.759-5.759h19.924
		v4.766h-20.917v1.986h20.917v4.766h-20.917v1.986h20.917V186.556z"/>
	<path fill="#2574A9" d="M503.089,186.556h-19.925v-4.766h20.917v-1.986h-16.019c-3.21,0-5.759-2.582-5.759-5.759
		s2.549-5.759,5.759-5.759h19.924v4.766H487.07v1.986h16.019c3.177,0,5.759,2.582,5.759,5.759S506.266,186.556,503.089,186.556z"/>
	<path fill="#2574A9" d="M534.999,173.053h-10.326v13.503h-4.766v-13.503h-10.326v-4.766h25.418V173.053z"/>
	<path fill="#2574A9" d="M541.359,186.556h-4.766v-18.269h4.766V186.556z"/>
	<path fill="#2574A9" d="M575.25,186.556h-4.766v-13.9l-6.983,11.948c-0.827,1.39-2.383,2.35-4.137,2.35s-3.276-0.959-4.104-2.35
		l-7.017-11.948v13.9h-4.766v-13.9c0-2.648,2.15-4.766,4.766-4.766c1.854,0,3.343,1.059,4.236,2.549l6.884,11.749l6.917-11.749
		c0.86-1.49,2.383-2.549,4.203-2.549c2.648,0,4.766,2.118,4.766,4.766V186.556z"/>
	<path fill="#2574A9" d="M607.924,186.556h-6.057l-2.582-3.508h-15.39l-2.582,3.508h-6.056l12.179-16.316
		c0.993-1.291,2.416-2.35,4.17-2.35c1.722,0,3.178,1.059,4.138,2.35L607.924,186.556z M595.811,178.282l-4.236-5.825l-4.236,5.825
		H595.811z"/>
	<path fill="#2574A9" d="M626.728,173.053h-10.326v13.503h-4.766v-13.503H601.31v-4.766h25.418V173.053z"/>
	<path fill="#2574A9" d="M633.088,186.556h-4.766v-18.269h4.766V186.556z"/>
	<path fill="#2574A9" d="M660.89,180.798c0,3.177-2.582,5.759-5.759,5.759h-14.166c-3.177,0-5.758-2.582-5.758-5.759v-6.751
		c0-3.177,2.581-5.759,5.758-5.759h14.166c3.177,0,5.759,2.582,5.759,5.759V180.798z M656.123,181.791v-8.738h-16.15v8.738H656.123z
		"/>
	<path fill="#2574A9" d="M688.895,168.287v13.9c0,2.647-2.118,4.766-4.766,4.766c-1.324,0-2.516-0.529-3.376-1.39l-12.974-12.908
		v13.9h-4.766v-13.9c0-2.648,2.15-4.766,4.766-4.766c1.323,0,2.482,0.563,3.376,1.423l12.974,12.875v-13.9H688.895z"/>
	<path fill="#2574A9" d="M725.971,179.805h-20.917v6.751h-4.767v-12.51c0-3.177,2.582-5.759,5.759-5.759h19.925v4.766h-20.917v1.986
		h20.917V179.805z"/>
	<path fill="#2574A9" d="M753.247,180.798c0,3.177-2.582,5.759-5.759,5.759h-14.166c-3.177,0-5.758-2.582-5.758-5.759v-6.751
		c0-3.177,2.581-5.759,5.758-5.759h14.166c3.177,0,5.759,2.582,5.759,5.759V180.798z M748.48,181.791v-8.738h-16.15v8.738H748.48z"
		/>
	<path fill="#2574A9" d="M781.055,186.556h-4.767v-4.766h-16.15v4.766h-4.767v-18.269h19.925c3.177,0,5.759,2.582,5.759,5.759v1.986
		c0,1.39-0.662,2.581-1.655,3.375c0.993,0.794,1.655,1.986,1.655,3.376V186.556z M776.288,177.025v-3.972h-16.15v3.972H776.288z"/>
	<path fill="#2574A9" d="M818.13,176.032c0,3.177-2.582,5.759-5.759,5.759h-15.158v4.766h-4.766v-18.269h19.924
		c3.177,0,5.759,2.582,5.759,5.759V176.032z M813.363,177.025v-3.972h-16.15v3.972H813.363z"/>
	<path fill="#2574A9" d="M848.484,168.287l-12.014,11.55c-0.331,0.331-0.662,0.596-1.059,0.828v5.891h-4.767v-5.891
		c-0.363-0.232-0.728-0.497-1.025-0.828l-12.015-11.55h7.017l8.407,8.406l8.439-8.406H848.484z"/>
	<path fill="#2574A9" d="M873.378,173.053h-10.326v13.503h-4.766v-13.503H847.96v-4.766h25.418V173.053z"/>
	<path fill="#2574A9" d="M900.655,186.556h-4.767v-6.751h-16.15v6.751h-4.766v-18.269h4.766v6.751h16.15v-6.751h4.767V186.556z"/>
	<path fill="#2574A9" d="M928.462,180.798c0,3.177-2.582,5.759-5.759,5.759h-14.166c-3.177,0-5.758-2.582-5.758-5.759v-6.751
		c0-3.177,2.581-5.759,5.758-5.759h14.166c3.177,0,5.759,2.582,5.759,5.759V180.798z M923.695,181.791v-8.738h-16.15v8.738H923.695z
		"/>
	<path fill="#2574A9" d="M956.468,168.287v13.9c0,2.647-2.118,4.766-4.766,4.766c-1.324,0-2.516-0.529-3.376-1.39l-12.974-12.908
		v13.9h-4.767v-13.9c0-2.648,2.151-4.766,4.767-4.766c1.323,0,2.482,0.563,3.376,1.423l12.974,12.875v-13.9H956.468z"/>
</g>
<g>
</g>
<g>
</g>
<g>
</g>
<g>
</g>
<g>
</g>
<g>
</g>
<g>
</g>
<g>
</g>
<g>
</g>
<g>
</g>
<g>
</g>
<g>
</g>
<g>
</g>
<g>
</g>
<g>
</g>
</svg>
